<svg xmlns="http://www.w3.org/2000/svg" xmlns:xlink="http://www.w3.org/1999/xlink" viewBox="0 0 280 250" preserveAspectRatio="xMidYMid" style="display: block; shape-rendering: auto; background: transparent;" width="280" height="250"><style type="text/css">
  .ld-text text {
    text-anchor: middle;
    dominant-baseline: middle;
    font-size: 33px;
    opacity: 0;
    user-select: none;
    pointer-events: none;
  }
</style>
<g style="transform-origin:140px 125px;transform:scale(1)" class="ld-text">
<g transform="translate(140,125)">
  <g transform="scale(0.4125) translate(0,0)"><g class="path" style="opacity: 1; transform-origin: -304.96px 0.07px; transform: matrix3d(0.91, 0, 0, 0, 0, 0.91, 0, 0, 0, 0, 0.91, 0, 0, 0, 0, 1); animation: 1s linear -0.616s infinite normal forwards running animate-4t0exd6kc0x; transform-box: view-box;"><path d="M27.84 11.82L27.84 11.82L28.16 9.34Q28.16 5.66 25.28 4.62L25.28 4.62Q23.04 3.90 21.84 3.90L21.84 3.90L21.76 3.90Q19.36 3.90 17.60 4.66Q15.84 5.42 15.04 6.54L15.04 6.54Q13.36 8.86 13.12 11.42L13.12 11.42Q13.12 14.46 15.84 16.66Q18.56 18.86 22.44 20.50Q26.32 22.14 30.20 24.06Q34.08 25.98 36.80 29.58Q39.52 33.18 39.52 38.22L39.52 38.22Q39.52 48.06 33.32 52.94Q27.12 57.82 19.24 57.82Q11.36 57.82 6.20 54.26Q1.04 50.70 1.04 44.70L1.04 44.70L1.04 44.62Q1.04 41.66 1.96 39.46Q2.88 37.26 4.16 36.22L4.16 36.22Q6.80 34.06 8.96 33.90L8.96 33.90L9.92 33.82Q12.16 33.82 14 34.90Q15.84 35.98 15.84 37.90L15.84 37.90Q15.84 38.86 14.80 39.50Q13.76 40.14 13 41.42Q12.24 42.70 12.16 43.58L12.16 43.58L12 44.46Q12 49.34 16.48 50.94L16.48 50.94Q18.08 51.50 19.04 51.50L19.04 51.50Q23.44 51.50 26.12 48.86Q28.80 46.22 28.80 42.14L28.80 42.14Q28.80 37.26 24.64 34.22L24.64 34.22Q21.52 31.98 17.88 30.46Q14.24 28.94 12.96 28.30Q11.68 27.66 10.24 26.78Q8.80 25.90 7.04 24.30L7.04 24.30Q3.20 20.94 3.20 15.22Q3.20 9.50 6.32 5.58L6.32 5.58Q11.92-1.54 23.12-1.54L23.12-1.54Q29.04-1.54 33.12 0.74Q37.20 3.02 37.20 7.02L37.20 7.02Q37.20 9.90 35.56 11.82Q33.92 13.74 31.36 13.74L31.36 13.74Q30.16 13.74 29 13.26Q27.84 12.78 27.84 11.82" style="fill: rgb(0, 198, 255);" transform="translate(-325.240,-28.069)"></path></g><g class="path" style="opacity: 1; transform-origin: -262.96px 0.15px; transform: matrix3d(0.91, 0, 0, 0, 0, 0.91, 0, 0, 0, 0, 0.91, 0, 0, 0, 0, 1); animation: 1s linear -0.572s infinite normal forwards running animate-4t0exd6kc0x; transform-box: view-box;"><path d="M56.64 20.70L56.64 20.70L56.64 21.82L70.80 21.82L70.80 21.66Q70.88 19.74 70.88 16.82Q70.88 13.90 70.80 11.70Q70.72 9.50 70.64 7.98Q70.56 6.46 70.44 5.34Q70.32 4.22 70.24 3.62Q70.16 3.02 70.16 2.54Q70.16 2.06 71.04 1.42L71.04 1.42Q74.88-1.14 79.60-1.14L79.60-1.14Q82.56-1.14 82.56-0.10L82.56-0.10Q82.56-0.02 82.40 0.78L82.40 0.78Q80.88 8.38 80.48 21.82L80.48 21.82Q80.24 35.26 80.24 36.22L80.24 36.22Q80.24 48.62 81.68 53.42L81.68 53.42Q81.92 54.06 81.92 54.50Q81.92 54.94 81.28 55.50L81.28 55.50Q78.32 57.42 73.60 57.42L73.60 57.42Q70.56 57.42 70.16 55.34L70.16 55.34Q69.92 54.22 69.92 51.86Q69.92 49.50 70.20 44.62Q70.48 39.74 70.64 27.58L70.64 27.58L56.64 27.58Q56.64 45.82 57.76 53.18L57.76 53.18Q57.76 55.10 54.08 56.34Q50.40 57.58 48 57.58Q45.60 57.58 45.60 56.86L45.60 56.86Q45.60 56.38 45.84 55.66L45.84 55.66Q47.36 52.30 47.36 28.62L47.36 28.62L47.36 27.58L42.64 27.58Q42 27.58 42 27.10L42 27.10Q42 26.94 42.32 25.86Q42.64 24.78 43.80 23.34Q44.96 21.90 46.40 21.90L46.40 21.90L47.28 21.90Q47.28 6.14 45.44 3.74L45.44 3.74L45.12 3.26Q44.64 2.86 44.64 2.26Q44.64 1.66 45.52 1.26L45.52 1.26Q46.72 0.54 49.80-0.18Q52.88-0.90 55.36-0.90Q57.84-0.90 57.84 0.22L57.84 0.22L57.84 0.46Q56.88 8.78 56.64 20.70" style="fill: rgb(163, 159, 250);" transform="translate(-325.240,-28.069)"></path></g><g class="path" style="opacity: 1; transform-origin: -217.24px -0.21px; transform: matrix3d(0.91, 0, 0, 0, 0, 0.91, 0, 0, 0, 0, 0.91, 0, 0, 0, 0, 1); animation: 1s linear -0.528s infinite normal forwards running animate-4t0exd6kc0x; transform-box: view-box;"><path d="M107.92 10.30L107.92 10.30Q101.60 18.22 98.80 26.14L98.80 26.14L98.88 26.14Q110 26.14 111.64 26.18Q113.28 26.22 113.44 26.06Q113.60 25.90 113.68 25.66L113.68 25.66Q112.32 15.82 111.52 12.26Q110.72 8.70 109.92 8.70Q109.12 8.70 107.92 10.30 zM100.80 47.98L100.80 47.98L102.56 47.66Q103.36 47.66 103.36 48.54L103.36 48.54Q103.36 51.34 102.24 53.26Q101.12 55.18 99.44 55.98L99.44 55.98Q96.72 57.34 94.80 57.34L94.80 57.34Q91.12 57.34 89.28 54.58Q87.44 51.82 87.44 46.26Q87.44 40.70 90.48 31.82L90.48 31.82L85.84 31.82Q84.96 31.82 84.96 30.94Q84.96 30.06 86.32 28.10Q87.68 26.14 89.20 26.14L89.20 26.14L92.80 26.14Q98.48 13.50 106.16 4.30L106.16 4.30Q108.16 1.90 111.08-0.18Q114-2.26 115.60-2.26Q117.20-2.26 118-0.82L118-0.82Q120.08 2.54 122.88 23.74L122.88 23.74Q123.84 32.86 126.20 42.58Q128.56 52.30 130.56 53.90L130.56 53.90Q131.04 54.22 131.04 54.70L131.04 54.70Q131.04 55.90 127.64 56.94Q124.24 57.98 122.44 57.98Q120.64 57.98 119.68 57.54Q118.72 57.10 118.48 56.62L118.48 56.62Q117.04 53.50 115.60 41.74L115.60 41.74L115.12 37.98Q114.80 34.22 114.48 32.30L114.48 32.30L113.92 31.90L97.20 31.82Q96.24 35.90 96.24 38.94Q96.24 41.98 96.44 43.38Q96.64 44.78 97.76 46.38Q98.88 47.98 100.80 47.98" style="fill: rgb(245, 9, 214);" transform="translate(-325.240,-28.069)"></path></g><g class="path" style="opacity: 1; transform-origin: -171.88px 0.23px; transform: matrix3d(0.91, 0, 0, 0, 0, 0.91, 0, 0, 0, 0, 0.91, 0, 0, 0, 0, 1); animation: 1s linear -0.484s infinite normal forwards running animate-4t0exd6kc0x; transform-box: view-box;"><path d="M160.88 25.58L159.68 25.82Q158.80 26.06 158.80 26.34Q158.80 26.62 160.72 27.34Q162.64 28.06 164.36 29.58Q166.08 31.10 166.80 33.26L166.80 33.26Q167.92 36.54 167.92 40.30Q167.92 44.06 168.48 46.50Q169.04 48.94 169.84 50.22L169.84 50.22Q171.44 52.94 172.80 53.58L172.80 53.58L173.36 53.90Q173.84 54.22 173.84 54.70L173.84 54.70Q173.84 55.90 169.92 56.82Q166 57.74 163.84 57.74L163.84 57.74Q159.60 57.74 158.44 54.34Q157.28 50.94 157.28 42.70L157.28 42.70L157.28 38.30Q157.28 31.34 153.12 29.42L153.12 29.42Q151.52 28.70 149.28 28.70L149.28 28.70L149.20 28.70Q148.48 28.70 148.48 27.30Q148.48 25.90 149.32 24.46Q150.16 23.02 150.80 23.02L150.80 23.02Q153.44 23.02 155.36 22.02Q157.28 21.02 158.16 19.58L158.16 19.58Q160 16.54 160.16 14.38L160.16 14.38L160.16 13.34Q160.16 10.38 159.20 8.34Q158.24 6.30 156.80 5.50L156.80 5.50Q154.40 4.22 151.92 4.22Q149.44 4.22 147.84 4.62L147.84 4.62Q145.60 5.26 145.60 5.98L145.60 5.98Q144.88 16.46 144.88 26.18Q144.88 35.90 145.16 41.06Q145.44 46.22 145.72 49.38Q146 52.54 146 53.10L146 53.10Q146 54.14 145.44 54.54L145.44 54.54Q142.16 57.58 135.12 57.58L135.12 57.58Q133.92 57.58 133.92 56.78L133.92 56.78Q133.92 56.54 134.16 55.66L134.16 55.66Q134.96 53.82 135.32 43.98Q135.68 34.14 135.68 26.02Q135.68 17.90 135.36 12.86L135.36 12.86Q134.88 5.26 133.76 3.74L133.76 3.74Q132.88 2.62 132.88 2.18Q132.88 1.74 133.76 1.26L133.76 1.26Q138.88-1.14 152.32-1.14L152.32-1.14Q163.12-1.14 168.48 4.94L168.48 4.94Q171.36 8.30 171.36 13.34L171.36 13.34Q171.36 16.38 170.16 18.78Q168.96 21.18 167.20 22.46L167.20 22.46Q163.84 25.02 160.88 25.58L160.88 25.58" style="fill: rgb(0, 198, 255);" transform="translate(-325.240,-28.069)"></path></g><g class="path" style="opacity: 1; transform-origin: -129.16px -0.21px; transform: matrix3d(0.91, 0, 0, 0, 0, 0.91, 0, 0, 0, 0, 0.91, 0, 0, 0, 0, 1); animation: 1s linear -0.44s infinite normal forwards running animate-4t0exd6kc0x; transform-box: view-box;"><path d="M196 10.30L196 10.30Q189.68 18.22 186.88 26.14L186.88 26.14L186.96 26.14Q198.08 26.14 199.72 26.18Q201.36 26.22 201.52 26.06Q201.68 25.90 201.76 25.66L201.76 25.66Q200.40 15.82 199.60 12.26Q198.80 8.70 198 8.70Q197.20 8.70 196 10.30 zM188.88 47.98L188.88 47.98L190.64 47.66Q191.44 47.66 191.44 48.54L191.44 48.54Q191.44 51.34 190.32 53.26Q189.20 55.18 187.52 55.98L187.52 55.98Q184.80 57.34 182.88 57.34L182.88 57.34Q179.20 57.34 177.36 54.58Q175.52 51.82 175.52 46.26Q175.52 40.70 178.56 31.82L178.56 31.82L173.92 31.82Q173.04 31.82 173.04 30.94Q173.04 30.06 174.40 28.10Q175.76 26.14 177.28 26.14L177.28 26.14L180.88 26.14Q186.56 13.50 194.24 4.30L194.24 4.30Q196.24 1.90 199.16-0.18Q202.08-2.26 203.68-2.26Q205.28-2.26 206.08-0.82L206.08-0.82Q208.16 2.54 210.96 23.74L210.96 23.74Q211.92 32.86 214.28 42.58Q216.64 52.30 218.64 53.90L218.64 53.90Q219.12 54.22 219.12 54.70L219.12 54.70Q219.12 55.90 215.72 56.94Q212.32 57.98 210.52 57.98Q208.72 57.98 207.76 57.54Q206.80 57.10 206.56 56.62L206.56 56.62Q205.12 53.50 203.68 41.74L203.68 41.74L203.20 37.98Q202.88 34.22 202.56 32.30L202.56 32.30L202 31.90L185.28 31.82Q184.32 35.90 184.32 38.94Q184.32 41.98 184.52 43.38Q184.72 44.78 185.84 46.38Q186.96 47.98 188.88 47.98" style="fill: rgb(163, 159, 250);" transform="translate(-325.240,-28.069)"></path></g><g class="path" style="opacity: 1; transform-origin: -85.32px 0.11px; transform: matrix3d(0.91, 0, 0, 0, 0, 0.91, 0, 0, 0, 0, 0.91, 0, 0, 0, 0, 1); animation: 1s linear -0.396s infinite normal forwards running animate-4t0exd6kc0x; transform-box: view-box;"><path d="M251.36 31.10L251.36 31.10L251.28 21.58Q251.28 7.42 250.32 2.78L250.32 2.78Q250.16 2.22 250.16 1.90L250.16 1.90Q250.16 0.54 252.88-0.42Q255.60-1.38 257.20-1.38Q258.80-1.38 258.80-0.42L258.80-0.42Q258.80-0.34 258.64 0.46L258.64 0.46Q256.80 10.30 256.80 31.74L256.80 31.74Q256.80 46.38 258.48 52.78L258.48 52.78Q258.80 53.82 258.80 53.90L258.80 53.90Q258.80 55.58 255.12 56.66Q251.44 57.74 249.92 57.74L249.92 57.74Q247.52 57.74 246.64 56.62L246.64 56.62Q244.88 54.38 240.92 44.02Q236.96 33.66 234 24.70L234 24.70L230.96 15.74Q230.80 15.34 230.56 15.34L230.56 15.34Q230.24 15.34 229.84 15.90L229.84 15.90Q229.44 23.34 229.44 30.78Q229.44 38.22 229.56 42.22Q229.68 46.22 229.84 48.30Q230 50.38 230.16 51.62Q230.32 52.86 230.44 53.42Q230.56 53.98 230.56 54.22L230.56 54.22Q230.56 55.74 227.92 56.58Q225.28 57.42 223.16 57.42Q221.04 57.42 221.04 56.46L221.04 56.46Q221.04 55.98 221.28 55.26Q221.52 54.54 221.84 53.42L221.84 53.42Q222.64 50.62 222.96 43.22Q223.28 35.82 223.28 26.34Q223.28 16.86 223.04 12.54L223.04 12.54Q222.64 5.50 221.60 3.10L221.60 3.10Q221.36 2.86 221.36 2.46L221.36 2.46Q221.36 1.18 225.60-0.02Q229.84-1.22 232.20-1.22Q234.56-1.22 234.96-1.14L234.96-1.14Q236.08-1.22 236.32 0.14L236.32 0.14Q238.64 8.54 242.84 19.90Q247.04 31.26 250.32 37.26L250.32 37.26Q250.72 37.66 250.96 37.66L250.96 37.66Q251.36 37.66 251.36 31.10" style="fill: rgb(245, 9, 214);" transform="translate(-325.240,-28.069)"></path></g><g class="path" style="opacity: 1; transform-origin: -42.2px 0.15px; transform: matrix3d(0.91, 0, 0, 0, 0, 0.91, 0, 0, 0, 0, 0.91, 0, 0, 0, 0, 1); animation: 1s linear -0.352s infinite normal forwards running animate-4t0exd6kc0x; transform-box: view-box;"><path d="M285.68 7.18Q287.76 4.54 289.88 2.26Q292-0.02 293.36-0.58Q294.72-1.14 298.88-1.14Q303.04-1.14 303.04-0.10L303.04-0.10Q303.04 0.30 302.16 0.78Q301.28 1.26 299.76 2.30Q298.24 3.34 293.40 7.98Q288.56 12.62 283.68 18.86L283.68 18.86Q283.52 19.02 283.52 19.30Q283.52 19.58 283.96 19.66Q284.40 19.74 285.20 19.90Q286 20.06 288.12 21.14Q290.24 22.22 291.92 23.86Q293.60 25.50 295.16 28.90Q296.72 32.30 296.96 35.30Q297.20 38.30 297.44 40.70Q297.68 43.10 298.68 47.58Q299.68 52.06 301.04 52.94L301.04 52.94Q301.44 53.26 301.44 53.74L301.44 53.74Q301.44 55.02 297.92 56.10Q294.40 57.18 291.64 57.18Q288.88 57.18 288.48 54.94L288.48 54.94Q288.08 52.54 287.92 43.50L287.92 43.50L287.92 40.30Q287.92 31.90 285.52 28.14L285.52 28.14Q283.44 24.86 281.76 24.46L281.76 24.46Q280.48 24.06 280.40 24.06L280.40 24.06L279.52 24.46Q277.60 26.70 276.48 28.78Q275.36 30.86 275.28 31.82L275.28 31.82L275.12 32.86Q275.12 44.14 276.08 52.14L276.08 52.14Q276.24 53.10 276.24 53.26L276.24 53.26Q276.24 55.02 272.52 56.30Q268.80 57.58 266.44 57.58Q264.08 57.58 264.08 56.86L264.08 56.86Q264.08 56.38 264.32 55.66L264.32 55.66Q265.12 53.90 265.48 44.02Q265.84 34.14 265.84 26.02Q265.84 17.90 265.52 12.86L265.52 12.86Q265.04 5.26 263.92 3.74L263.92 3.74Q263.04 2.62 263.04 2.30L263.04 2.30Q263.04 1.18 267.16 0.14Q271.28-0.90 273.80-0.90Q276.32-0.90 276.32 0.22L276.32 0.22L276.24 1.26Q275.20 9.90 275.20 19.74L275.20 19.74Q275.20 20.54 275.56 20.54Q275.92 20.54 276.40 19.82Q276.88 19.10 277.80 17.82Q278.72 16.54 281.16 13.18Q283.60 9.82 285.68 7.18" style="fill: rgb(0, 198, 255);" transform="translate(-325.240,-28.069)"></path></g><g class="path" style="opacity: 1; transform-origin: -2.52px 0.23px; transform: matrix3d(0.91, 0, 0, 0, 0, 0.91, 0, 0, 0, 0, 0.91, 0, 0, 0, 0, 1); animation: 1s linear -0.308s infinite normal forwards running animate-4t0exd6kc0x; transform-box: view-box;"><path d="M304.88 42.22L304.88 42.22L305.44 19.74Q305.44 14.54 305.20 11.18L305.20 11.18Q304.80 5.18 303.84 3.66L303.84 3.66L303.52 3.18Q303.12 2.86 303.12 2.38L303.12 2.38Q303.12 0.86 307.12-0.06Q311.12-0.98 313.84-0.98Q316.56-0.98 316.56 0.54L316.56 0.54L316.48 1.42Q315.36 9.34 315.12 20.18Q314.88 31.02 314.88 34.38Q314.88 37.74 315.12 39.98Q315.36 42.22 315.40 42.58Q315.44 42.94 315.80 43.94Q316.16 44.94 316.72 45.74L316.72 45.74Q318.16 47.66 320.80 47.66Q323.44 47.66 325.24 46.46Q327.04 45.26 327.92 43.50L327.92 43.50Q329.76 39.74 330.16 37.02L330.16 37.02L330.32 35.82Q330.72 30.14 330.72 22.38Q330.72 14.62 330.64 12.22Q330.56 9.82 330.40 8.26Q330.24 6.70 330.12 5.50Q330 4.30 329.92 3.62Q329.84 2.94 329.84 2.86L329.84 2.86Q329.84 1.98 330.72 1.42L330.72 1.42Q332.08 0.38 334.92-0.34Q337.76-1.06 340-1.06Q342.24-1.06 342.24-0.02L342.24-0.02Q342.24 0.14 341.84 2.62L341.84 2.62Q340.08 13.50 340.08 32.86L340.08 32.86Q340.08 47.18 342 53.26L342 53.26Q342.32 54.22 342.32 54.58Q342.32 54.94 341.68 55.50L341.68 55.50Q339.28 57.34 335.32 57.34Q331.36 57.34 331.04 55.34L331.04 55.34Q330.64 54.30 330.56 51.18L330.56 51.18L330.48 50.22Q330.48 49.50 330.16 49.50L330.16 49.50L329.28 50.06Q327.76 52.62 325.76 54.34Q323.76 56.06 321.92 56.70L321.92 56.70Q319.28 57.66 316.76 57.66Q314.24 57.66 311.72 56.34Q309.20 55.02 307.96 53.26Q306.72 51.50 305.92 49.10L305.92 49.10Q304.88 45.66 304.88 42.22" style="fill: rgb(163, 159, 250);" transform="translate(-325.240,-28.069)"></path></g><g class="path" style="opacity: 1; transform-origin: 47.24px -0.49px; transform: matrix3d(0.91, 0, 0, 0, 0, 0.91, 0, 0, 0, 0, 0.91, 0, 0, 0, 0, 1); animation: 1s linear -0.264s infinite normal forwards running animate-4t0exd6kc0x; transform-box: view-box;"><path d="M348.80 25.02L348.80 25.02L348.40 9.90Q348.40 6.30 347.60 4.22Q346.80 2.14 346.80 1.98L346.80 1.98Q346.80 0.22 352.20-0.74Q357.60-1.70 360.44-1.70Q363.28-1.70 363.52-0.34L363.52-0.34Q368.56 22.14 372 30.86L372 30.86Q372.40 31.82 372.84 31.82Q373.28 31.82 373.60 31.10L373.60 31.10Q378.96 15.98 383.04 1.18L383.04 1.18Q383.36 0.22 384.64-0.30Q385.92-0.82 389.08-1.30Q392.24-1.78 395.36-1.78Q398.48-1.78 398.48-0.50L398.48-0.50Q398.48-0.42 398.24 0.74Q398 1.90 397.76 3.58Q397.52 5.26 397.20 7.66L397.20 7.66Q396.48 13.18 396.28 20.34Q396.08 27.50 396.08 34.70L396.08 34.70L396.24 43.10Q396.24 48.86 397 51.30Q397.76 53.74 397.76 54.10Q397.76 54.46 397.20 54.94L397.20 54.94Q394.72 56.94 389.68 56.94L389.68 56.94Q386.48 56.94 386.08 54.78L386.08 54.78Q385.84 53.66 385.84 51.22Q385.84 48.78 386.32 36.22Q386.80 23.66 386.80 17.94Q386.80 12.22 386.16 12.22L386.16 12.22Q386.08 12.22 386.08 12.26Q386.08 12.30 385.84 12.38Q385.60 12.46 384.60 14.86Q383.60 17.26 380.64 26.70Q377.68 36.14 375.28 44.34Q372.88 52.54 372.64 53.18L372.64 53.18Q371.76 55.34 369.28 55.34L369.28 55.34Q368.08 55.34 367.36 54.46L367.36 54.46Q364.80 42.62 358.24 20.62L358.24 20.62L356 13.34Q355.84 12.94 355.68 12.94L355.68 12.94Q355.28 12.94 355.12 13.50L355.12 13.50Q354.80 18.70 354.80 33.94Q354.80 49.18 355.92 53.18L355.92 53.18Q356 53.34 356 53.66L356 53.66Q356 55.34 353.36 56.10Q350.72 56.86 348.60 56.86Q346.48 56.86 346.48 55.90L346.48 55.90Q346.48 55.82 346.88 54.62L346.88 54.62Q348.08 50.54 348.44 42.78Q348.80 35.02 348.80 25.02" style="fill: rgb(245, 9, 214);" transform="translate(-325.240,-28.069)"></path></g><g class="path" style="opacity: 1; transform-origin: 98.12px -0.21px; transform: matrix3d(0.91, 0, 0, 0, 0, 0.91, 0, 0, 0, 0, 0.91, 0, 0, 0, 0, 1); animation: 1s linear -0.22s infinite normal forwards running animate-4t0exd6kc0x; transform-box: view-box;"><path d="M423.28 10.30L423.28 10.30Q416.96 18.22 414.16 26.14L414.16 26.14L414.24 26.14Q425.36 26.14 427 26.18Q428.64 26.22 428.80 26.06Q428.96 25.90 429.04 25.66L429.04 25.66Q427.68 15.82 426.88 12.26Q426.08 8.70 425.28 8.70Q424.48 8.70 423.28 10.30 zM416.16 47.98L416.16 47.98L417.92 47.66Q418.72 47.66 418.72 48.54L418.72 48.54Q418.72 51.34 417.60 53.26Q416.48 55.18 414.80 55.98L414.80 55.98Q412.08 57.34 410.16 57.34L410.16 57.34Q406.48 57.34 404.64 54.58Q402.80 51.82 402.80 46.26Q402.80 40.70 405.84 31.82L405.84 31.82L401.20 31.82Q400.32 31.82 400.32 30.94Q400.32 30.06 401.68 28.10Q403.04 26.14 404.56 26.14L404.56 26.14L408.16 26.14Q413.84 13.50 421.52 4.30L421.52 4.30Q423.52 1.90 426.44-0.18Q429.36-2.26 430.96-2.26Q432.56-2.26 433.36-0.82L433.36-0.82Q435.44 2.54 438.24 23.74L438.24 23.74Q439.20 32.86 441.56 42.58Q443.92 52.30 445.92 53.90L445.92 53.90Q446.40 54.22 446.40 54.70L446.40 54.70Q446.40 55.90 443 56.94Q439.60 57.98 437.80 57.98Q436 57.98 435.04 57.54Q434.08 57.10 433.84 56.62L433.84 56.62Q432.40 53.50 430.96 41.74L430.96 41.74L430.48 37.98Q430.16 34.22 429.84 32.30L429.84 32.30L429.28 31.90L412.56 31.82Q411.60 35.90 411.60 38.94Q411.60 41.98 411.80 43.38Q412 44.78 413.12 46.38Q414.24 47.98 416.16 47.98" style="fill: rgb(0, 198, 255);" transform="translate(-325.240,-28.069)"></path></g><g class="path" style="opacity: 1; transform-origin: 143.48px 0.23px; transform: matrix3d(0.91, 0, 0, 0, 0, 0.91, 0, 0, 0, 0, 0.91, 0, 0, 0, 0, 1); animation: 1s linear -0.176s infinite normal forwards running animate-4t0exd6kc0x; transform-box: view-box;"><path d="M476.24 25.58L475.04 25.82Q474.16 26.06 474.16 26.34Q474.16 26.62 476.08 27.34Q478 28.06 479.72 29.58Q481.44 31.10 482.16 33.26L482.16 33.26Q483.28 36.54 483.28 40.30Q483.28 44.06 483.84 46.50Q484.40 48.94 485.20 50.22L485.20 50.22Q486.80 52.94 488.16 53.58L488.16 53.58L488.72 53.90Q489.20 54.22 489.20 54.70L489.20 54.70Q489.20 55.90 485.28 56.82Q481.36 57.74 479.20 57.74L479.20 57.74Q474.96 57.74 473.80 54.34Q472.64 50.94 472.64 42.70L472.64 42.70L472.64 38.30Q472.64 31.34 468.48 29.42L468.48 29.42Q466.88 28.70 464.64 28.70L464.64 28.70L464.56 28.70Q463.84 28.70 463.84 27.30Q463.84 25.90 464.68 24.46Q465.52 23.02 466.16 23.02L466.16 23.02Q468.80 23.02 470.72 22.02Q472.64 21.02 473.52 19.58L473.52 19.58Q475.36 16.54 475.52 14.38L475.52 14.38L475.52 13.34Q475.52 10.38 474.56 8.34Q473.60 6.30 472.16 5.50L472.16 5.50Q469.76 4.22 467.28 4.22Q464.80 4.22 463.20 4.62L463.20 4.62Q460.96 5.26 460.96 5.98L460.96 5.98Q460.24 16.46 460.24 26.18Q460.24 35.90 460.52 41.06Q460.80 46.22 461.08 49.38Q461.36 52.54 461.36 53.10L461.36 53.10Q461.36 54.14 460.80 54.54L460.80 54.54Q457.52 57.58 450.48 57.58L450.48 57.58Q449.28 57.58 449.28 56.78L449.28 56.78Q449.28 56.54 449.52 55.66L449.52 55.66Q450.32 53.82 450.68 43.98Q451.04 34.14 451.04 26.02Q451.04 17.90 450.72 12.86L450.72 12.86Q450.24 5.26 449.12 3.74L449.12 3.74Q448.24 2.62 448.24 2.18Q448.24 1.74 449.12 1.26L449.12 1.26Q454.24-1.14 467.68-1.14L467.68-1.14Q478.48-1.14 483.84 4.94L483.84 4.94Q486.72 8.30 486.72 13.34L486.72 13.34Q486.72 16.38 485.52 18.78Q484.32 21.18 482.56 22.46L482.56 22.46Q479.20 25.02 476.24 25.58L476.24 25.58" style="fill: rgb(163, 159, 250);" transform="translate(-325.240,-28.069)"></path></g><g class="path" style="opacity: 1; transform-origin: 184.32px 0.35px; transform: matrix3d(0.91, 0, 0, 0, 0, 0.91, 0, 0, 0, 0, 0.91, 0, 0, 0, 0, 1); animation: 1s linear -0.132s infinite normal forwards running animate-4t0exd6kc0x; transform-box: view-box;"><path d="M502.32 20.14L502.32 20.14L502.40 30.14L502.08 43.98Q502.16 44.30 502.32 44.30Q502.48 44.30 502.56 44.14L502.56 44.14Q504.16 41.90 506.52 41.90Q508.88 41.90 508.88 42.86L508.88 42.86Q508.88 45.90 510.04 47.54Q511.20 49.18 513.32 49.18Q515.44 49.18 517.40 46.30Q519.36 43.42 519.36 38.62L519.36 38.62Q519.36 37.02 518.72 34.78L518.72 34.78Q517.44 30.30 513.92 28.78L513.92 28.78Q511.36 27.74 505.60 27.74L505.60 27.74Q504.96 27.74 504.96 26.86L504.96 26.86Q504.96 22.38 506.56 22.22L506.56 22.22Q508.72 22.22 511.12 21.10L511.12 21.10Q515.92 18.86 515.92 11.90L515.92 11.90Q515.92 4.38 507.28 4.38L507.28 4.38L504.80 4.54Q503.36 4.86 503.20 5.74L503.20 5.74L503.20 5.98Q502.32 9.18 502.32 20.14 zM490.56 57.26L490.56 57.26L490.72 56.38Q491.52 54.94 492.08 44.66Q492.64 34.38 492.64 25.46Q492.64 16.54 492.28 11.14Q491.92 5.74 490.32 3.34L490.32 3.34Q490 2.94 490 2.38Q490 1.82 490.96 1.42L490.96 1.42Q497.52-1.14 508.80-1.14L508.80-1.14Q511.60-1.14 514.88-0.38Q518.16 0.38 520.28 1.50Q522.40 2.62 524.12 4.94Q525.84 7.26 526.08 10.46L526.08 10.46Q526.08 22.06 516.48 23.82L516.48 23.82Q516 23.98 516 24.18Q516 24.38 516.40 24.62L516.40 24.62Q521.36 25.42 524.72 28.62L524.72 28.62Q526.40 30.14 527.76 33.34Q529.12 36.54 529.12 40.70L529.12 40.70Q529.12 46.06 526 50.86L526 50.86Q523.44 54.78 518.56 56.46L518.56 56.46Q515.84 57.42 512.48 57.42L512.48 57.42Q504.08 57.42 501.84 52.06L501.84 52.06Q501.76 51.82 501.60 51.82L501.60 51.82L501.28 52.14Q499.60 57.74 491.68 57.98L491.68 57.98Q490.56 57.98 490.56 57.26" style="fill: rgb(245, 9, 214);" transform="translate(-325.240,-28.069)"></path></g><g class="path" style="opacity: 1; transform-origin: 222.84px -0.61px; transform: matrix3d(0.91, 0, 0, 0, 0, 0.91, 0, 0, 0, 0, 0.91, 0, 0, 0, 0, 1); animation: 1s linear -0.088s infinite normal forwards running animate-4t0exd6kc0x; transform-box: view-box;"><path d="M554.48 56.06L554.48 56.06L549.92 55.98Q548.96 55.98 548 55.98L548 55.98L533.44 56.70Q532.24 56.70 532.24 55.90L532.24 55.90Q532.24 55.66 532.48 54.78L532.48 54.78Q533.28 52.94 533.64 43.10Q534 33.26 534 25.14Q534 17.02 533.68 11.98L533.68 11.98Q533.20 4.38 532.08 2.86L532.08 2.86Q531.20 1.74 531.20 1.42L531.20 1.42Q531.20 0.14 535.52-0.82Q539.84-1.78 541.72-1.78Q543.60-1.78 544.08-1.58Q544.56-1.38 544.56-0.74Q544.56-0.10 544.24 3.34L544.24 3.34Q543.44 13.50 543.44 26.98Q543.44 40.46 544.08 48.54L544.08 48.54Q544.08 49.42 545.60 50.06Q547.12 50.70 549.36 50.70L549.36 50.70Q557.20 50.70 557.20 38.62L557.20 38.62Q557.20 35.26 556.84 34.46Q556.48 33.66 556.48 33.42L556.48 33.42Q556.48 32.62 557.60 32.62L557.60 32.62Q558.48 32.62 559.96 33.50Q561.44 34.38 562.40 35.70Q563.36 37.02 564.16 39.86Q564.96 42.70 564.96 46.54L564.96 46.54Q564.96 56.06 562.64 56.06L562.64 56.06Q558.56 56.06 554.48 56.06" style="fill: rgb(0, 198, 255);" transform="translate(-325.240,-28.069)"></path></g><g class="path" style="opacity: 1; transform-origin: 262.76px 0.11px; transform: matrix3d(0.91, 0, 0, 0, 0, 0.91, 0, 0, 0, 0, 0.91, 0, 0, 0, 0, 1); animation: 1s linear -0.044s infinite normal forwards running animate-4t0exd6kc0x; transform-box: view-box;"><path d="M588.88 4.78L588.88 4.78Q586 4.78 584.08 6.86L584.08 6.86Q580.72 10.54 580.72 16.18Q580.72 21.82 583.60 22.94L583.60 22.94Q584.32 23.18 584.32 23.98L584.32 23.98Q584.32 26.38 582.72 28.02Q581.12 29.66 578.80 29.98L578.80 29.98Q578.08 29.98 578.08 30.54L578.08 30.54Q578 31.42 578 33.06Q578 34.70 578.16 36.66Q578.32 38.62 578.92 41.30Q579.52 43.98 580.52 45.94Q581.52 47.90 583.40 49.30Q585.28 50.70 588.28 50.70Q591.28 50.70 593.68 48.30Q596.08 45.90 597.04 42.06L597.04 42.06Q598.80 35.34 598.80 29.14Q598.80 22.94 598 18.22Q597.20 13.50 596.12 11.02Q595.04 8.54 593.52 7.02Q592 5.50 590.96 5.14Q589.92 4.78 588.88 4.78 zM574.32 12.70L574.32 12.70L574.64 12.22Q575.44 8.54 577.24 5.86Q579.04 3.18 580.84 1.86Q582.64 0.54 584.88-0.18L584.88-0.18Q587.84-1.14 590.08-1.14L590.08-1.14Q595.44-1.14 599.32 1.34Q603.20 3.82 605.20 8.06L605.20 8.06Q608.88 16.14 608.88 26.38L608.88 26.38Q608.88 43.58 600.88 51.42L600.88 51.42Q596.96 55.26 592.24 56.62L592.24 56.62Q589.28 57.50 586.56 57.50L586.56 57.50Q576.56 57.50 571.84 50.66Q567.12 43.82 567.12 33.34L567.12 33.34Q567.12 27.26 568.16 22.18Q569.20 17.10 570.32 15.02L570.32 15.02L571.36 12.94Q571.68 12.22 572.40 12.22Q573.12 12.22 573.48 12.34Q573.84 12.46 574.04 12.58Q574.24 12.70 574.32 12.70" style="fill: rgb(163, 159, 250);" transform="translate(-325.240,-28.069)"></path></g><g class="path" style="opacity: 1; transform-origin: 306.84px 0.11px; transform: matrix3d(0.91, 0, 0, 0, 0, 0.91, 0, 0, 0, 0, 0.91, 0, 0, 0, 0, 1); animation: 1s linear 0s infinite normal forwards running animate-4t0exd6kc0x; transform-box: view-box;"><path d="M640.80 40.22L640.64 32.62Q640.64 30.78 638.40 30.62L638.40 30.62L632.72 30.62Q632.08 30.62 632.08 30.22L632.08 30.22Q632.56 27.90 633.76 26.50Q634.96 25.10 635.76 24.94L635.76 24.94Q638 24.62 643.12 24.62Q648.24 24.62 649.52 24.66Q650.80 24.70 651.12 24.94L651.12 24.94Q651.44 25.34 651.44 25.86Q651.44 26.38 651.16 32.50Q650.88 38.62 650.88 43.46Q650.88 48.30 651.20 49.54Q651.52 50.78 651.52 51.10L651.52 51.10Q651.52 52.38 649.28 53.86Q647.04 55.34 642.52 56.46Q638 57.58 632.56 57.58L632.56 57.58Q625.28 57.58 619.92 52.54L619.92 52.54Q615.76 48.54 614.20 43.82Q612.64 39.10 612.64 30.54L612.64 30.54Q612.64-1.22 635.92-1.22L635.92-1.22Q639.84-1.22 642.96-0.38Q646.08 0.46 648.44 2.90Q650.80 5.34 650.80 9.18L650.80 9.18Q650.80 11.18 650 13.26L650 13.26Q648.56 17.50 643.60 17.50L643.60 17.50Q640.88 17.50 639.48 16.10Q638.08 14.70 638.08 12.22L638.08 12.22Q638.08 11.26 639.12 11.02L639.12 11.02Q640.64 10.14 640.64 8.02Q640.64 5.90 639.04 4.74Q637.44 3.58 635.68 3.58L635.68 3.58Q631.84 3.58 629.20 6.34Q626.56 9.10 625.36 13.58L625.36 13.58Q623.36 21.58 623.36 29.90L623.36 29.90Q623.36 43.50 630 47.98L630 47.98Q632.48 49.74 635.20 49.74L635.20 49.74Q640.24 49.74 640.56 47.90L640.56 47.90Q640.80 45.42 640.80 40.22L640.80 40.22" style="fill: rgb(245, 9, 214);" transform="translate(-325.240,-28.069)"></path></g></g><text dy="0.35em" fill="#00c6ff" font-family="Aladin" font-size="33">SHARANKUMARBLOG</text>
</g>
</g><style type="text/css">@keyframes animate-4t0exd6kc0x { 0.00% {transform: translate(0.00px,0.00px) rotate(0.00deg) scale(0.91, 0.91) skew(0deg, 0.00deg) ;opacity: 1.00;}4.00% {transform: translate(0.00px,0.00px) rotate(0.00deg) scale(0.91, 0.91) ;}8.00% {animation-timing-function: cubic-bezier(0.69,0.60,0.35,0.27);transform: translate(0.00px,0.00px) rotate(0.00deg) scale(0.91, 0.91) ;}14.00% {transform: translate(0.00px,0.00px) rotate(0.00deg) scale(0.93, 0.93) ;}18.00% {transform: translate(0.00px,0.00px) rotate(0.00deg) scale(0.94, 0.94) ;}22.00% {animation-timing-function: cubic-bezier(0.67,0.66,0.34,0.33);transform: translate(0.00px,0.00px) rotate(0.00deg) scale(0.96, 0.96) ;}26.00% {transform: translate(0.00px,0.00px) rotate(0.00deg) scale(0.97, 0.97) ;}30.00% {transform: translate(0.00px,0.00px) rotate(0.00deg) scale(0.99, 0.99) ;}34.00% {animation-timing-function: cubic-bezier(0.65,0.71,0.32,0.38);transform: translate(0.00px,0.00px) rotate(0.00deg) scale(1.01, 1.01) ;}40.00% {animation-timing-function: cubic-bezier(0.64,0.74,0.31,0.41);transform: translate(0.00px,0.00px) rotate(0.00deg) scale(1.02, 1.02) ;}46.00% {animation-timing-function: cubic-bezier(0.60,0.91,0.23,0.63);transform: translate(0.00px,0.00px) rotate(0.00deg) scale(1.03, 1.03) ;}50.00% {transform: translate(0.00px,0.00px) rotate(0.00deg) scale(1.03, 1.03) ;}54.00% {transform: translate(0.00px,0.00px) rotate(0.00deg) scale(1.03, 1.03) ;}58.00% {animation-timing-function: cubic-bezier(0.69,0.60,0.35,0.27);transform: translate(0.00px,0.00px) rotate(0.00deg) scale(1.03, 1.03) ;}64.00% {transform: translate(0.00px,0.00px) rotate(0.00deg) scale(1.01, 1.01) ;}68.00% {transform: translate(0.00px,0.00px) rotate(0.00deg) scale(1.00, 1.00) ;}72.00% {animation-timing-function: cubic-bezier(0.67,0.66,0.34,0.33);transform: translate(0.00px,0.00px) rotate(0.00deg) scale(0.98, 0.98) ;}76.00% {animation-timing-function: cubic-bezier(0.66,0.68,0.33,0.35);transform: translate(0.00px,0.00px) rotate(0.00deg) scale(0.97, 0.97) ;}82.00% {animation-timing-function: cubic-bezier(0.65,0.71,0.32,0.38);transform: translate(0.00px,0.00px) rotate(0.00deg) scale(0.94, 0.94) ;}88.00% {animation-timing-function: cubic-bezier(0.65,0.73,0.31,0.40);transform: translate(0.00px,0.00px) rotate(0.00deg) scale(0.92, 0.92) ;}94.00% {animation-timing-function: cubic-bezier(0.63,0.80,0.28,0.48);transform: translate(0.00px,0.00px) rotate(0.00deg) scale(0.91, 0.91) ;}100.00% {animation-timing-function: cubic-bezier(0.63,0.80,0.28,0.48);transform: translate(0.00px,0.00px) rotate(0.00deg) scale(0.91, 0.91) ;} }</style><!-- [ldio] generated by https://loading.io --></svg>